HIERARCHY
ROOT hip
{
	OFFSET 0.000000 0.000000 0.000000 
	CHANNELS 6 Xposition Yposition Zposition Xrotation Zrotation Yrotation
	JOINT abdomen
	{
		OFFSET 0.000000 3.402643 0.000000 
		CHANNELS 3 Xrotation Zrotation Yrotation
		JOINT chest
		{
			OFFSET 0.000000 8.438565 -0.680529 
			CHANNELS 3 Xrotation Zrotation Yrotation
			JOINT neck
			{
				OFFSET 0.000000 10.207942 -0.272212 
				CHANNELS 3 Xrotation Zrotation Yrotation
				JOINT head
				{
					OFFSET 0.000000 3.130431 0.000000 
					CHANNELS 3 Xrotation Zrotation Yrotation
					End Site
					{
						OFFSET 0.000000 3.130435 0.000000 
					}
				}
			}
			JOINT lCollar
			{
				OFFSET 3.470700 6.669187 -0.816635 
				CHANNELS 3 Yrotation Zrotation Xrotation
				JOINT lShldr
				{
					OFFSET 3.198488 0.000000 0.000000 
					CHANNELS 3 Zrotation Yrotation Xrotation
					JOINT lForeArm
					{
						OFFSET 10.139888 0.000000 0.000000 
						CHANNELS 3 Yrotation Zrotation Xrotation
						JOINT lHand
						{
							OFFSET 8.370511 0.000000 0.000000 
							CHANNELS 3 Zrotation Yrotation Xrotation
							End Site
							{
								OFFSET 4.083176 0.000000 0.000000 
							}
						}
					}
				}
			}
			JOINT rCollar
			{
				OFFSET -3.470700 6.669187 -0.816635 
				CHANNELS 3 Yrotation Zrotation Xrotation
				JOINT rShldr
				{
					OFFSET -3.198488 0.000000 0.000000 
					CHANNELS 3 Zrotation Yrotation Xrotation
					JOINT rForeArm
					{
						OFFSET -10.139888 0.000000 0.000000 
						CHANNELS 3 Yrotation Zrotation Xrotation
						JOINT rHand
						{
							OFFSET -8.370511 0.000000 0.000000 
							CHANNELS 3 Zrotation Yrotation Xrotation
							End Site
							{
								OFFSET -4.083176 0.000000 0.000000 
							}
						}
					}
				}
			}
		}
	}
	JOINT lThigh
	{
		OFFSET 5.308129 -1.633274 1.361059 
		CHANNELS 3 Xrotation Zrotation Yrotation
		JOINT lShin
		{
			OFFSET -2.041588 -20.007561 0.000000 
			CHANNELS 3 Xrotation Zrotation Yrotation
			JOINT lFoot
			{
				OFFSET 0.000000 -19.190928 -1.224953 
				CHANNELS 3 Xrotation Yrotation Zrotation
				End Site
				{
					OFFSET 0.000000 -2.449906 4.627600 
				}
			}
		}
	}
	JOINT rThigh
	{
		OFFSET -5.308129 -1.633274 1.361059 
		CHANNELS 3 Xrotation Zrotation Yrotation
		JOINT rShin
		{
			OFFSET 2.041588 -20.007561 0.000000 
			CHANNELS 3 Xrotation Zrotation Yrotation
			JOINT rFoot
			{
				OFFSET 0.000000 -19.190928 -1.224953 
				CHANNELS 3 Xrotation Yrotation Zrotation
				End Site
				{
					OFFSET 0.000000 -2.449906 4.627600 
				}
			}
		}
	}
}
MOTION
Frames: 18
Frame Time: 0.016667
1.576941 46.338554 1.413370 16.801670 14.154494 -4.642002 8.255935 -1.815896 -1.358287 3.866028 3.505389 0.939328 11.470024 -19.270876 14.467983 -11.969097 -19.814533 15.246837 -3.395608 -9.381092 2.312266 -32.467682 -20.938301 -80.627495 -108.671341 15.538589 21.014133 25.561850 -20.204027 14.268134 10.576037 12.409985 1.100014 54.323238 6.637458 3.508797 60.443336 -9.896705 12.680304 -36.482018 18.215025 -77.011826 -15.384506 8.697686 0.976244 36.649788 -0.515764 -1.596929 -4.798325 -2.783394 -5.604045 -50.075253 -18.652203 20.930283 47.717915 -2.819164 3.851855 -15.367202 -4.544177 15.168166 
2.997359 45.094574 0.631760 18.773754 17.504267 -8.243953 8.255935 -1.815896 -1.358287 3.334320 1.747991 0.459367 8.158307 -21.770737 15.577597 -14.959376 -20.348080 17.319967 -4.064422 -10.266851 1.920026 -36.105259 -18.946640 -71.031433 -100.988174 16.156647 18.788851 24.358988 -20.763918 17.666742 10.221095 10.394081 0.946642 55.887520 6.374352 5.547469 49.798595 -11.032624 11.779993 -38.954048 10.667051 -91.729782 -16.791437 6.598920 4.833794 38.057499 -0.154825 -1.545921 -15.809120 -5.090500 -9.124649 -59.088726 -19.023493 24.160543 51.752331 -4.465022 5.623843 -17.105413 -1.892180 16.877050 
3.729283 44.342022 0.233255 19.370981 19.561470 -10.067771 8.255935 -1.815896 -1.358287 3.339363 0.166015 -0.166015 6.170349 -24.004026 15.973515 -17.404095 -21.021538 18.507593 -5.122665 -11.404533 2.014078 -40.279922 -16.303024 -61.187943 -92.440285 16.363132 16.345781 25.095806 -21.624550 18.314974 9.652887 8.979536 1.236307 55.716568 6.618924 6.439415 39.455059 -11.821618 10.566182 -39.838165 3.524612 -106.622787 -16.867058 5.572389 6.175849 37.676346 0.192892 -2.456975 -22.268602 -5.023743 -12.831992 -63.815033 -19.541418 24.266045 54.108688 -5.450439 6.715655 -19.182922 0.933902 17.161781 
3.557518 44.356487 0.280965 18.083624 19.383204 -10.150500 8.255935 -1.815896 -1.358287 4.037953 -1.064354 -0.781478 6.016023 -25.426338 15.766493 -18.349943 -21.172436 19.076275 -6.359105 -13.152461 2.727962 -44.539238 -12.761055 -51.198002 -84.309502 15.361938 14.179999 23.595844 -23.547857 18.198767 9.016813 7.812069 1.954459 54.834553 5.911216 4.284645 31.772333 -12.395026 9.727857 -41.018948 -0.026023 -114.388062 -14.156191 5.710863 4.513900 35.013264 0.388523 -3.002947 -23.327028 -5.316373 -16.348423 -62.218433 -20.429930 21.557899 53.855194 -5.997088 7.112283 -19.621902 2.573442 16.347740 
2.482087 45.137253 0.750203 15.272021 17.249615 -8.315540 8.255935 -1.815896 -1.358287 5.272651 -1.942766 -1.416857 8.129587 -25.302174 14.490330 -17.582075 -20.138504 18.511396 -7.798685 -15.049336 4.078534 -48.102932 -8.495824 -41.064438 -77.082512 13.334483 12.368100 21.791388 -23.959520 19.014206 8.284172 6.919755 3.334773 54.487373 2.767428 -2.932353 29.447121 -12.572524 9.507119 -44.115273 1.039367 -111.326385 -9.360110 7.359275 0.667831 29.589899 -0.279867 -2.956152 -15.322148 -5.249922 -14.090590 -55.093922 -21.112741 16.474854 51.965614 -5.680188 6.423963 -19.245447 3.167600 14.641003 
0.700653 46.375614 1.519223 11.595678 13.455129 -4.547568 8.255935 -1.815896 -1.358287 6.673363 -2.976801 -1.946314 11.903599 -22.926889 12.899502 -15.499753 -17.009676 17.055994 -8.381994 -17.335962 5.733268 -50.571491 -3.679140 -31.562506 -71.915176 11.286905 11.365052 28.807316 -24.815893 11.316182 7.670449 6.061689 5.054176 55.361652 -2.547379 -14.940824 33.738369 -12.210799 9.872107 -48.106358 5.275250 -99.944336 -4.033009 10.800574 -3.472751 24.475336 -0.196529 -2.762889 -3.844404 -4.338934 -11.666862 -43.291943 -20.719997 9.396515 47.533833 -4.215469 5.698770 -17.705463 2.904016 12.388426 
-1.414994 47.596970 2.358542 8.455635 9.575972 1.693759 8.255935 -1.815896 -1.358287 7.562398 -4.018516 -2.839435 15.580720 -18.598944 10.204597 -12.592920 -11.913327 15.057288 -8.706268 -18.762205 6.598581 -51.594963 1.419776 -22.659781 -68.222992 10.326562 10.640496 38.612999 -24.892637 -0.573311 7.024324 5.030907 5.850449 56.688751 -9.068786 -28.489042 42.666088 -11.627346 10.995781 -52.057850 11.320636 -82.943909 -3.152411 15.707954 -5.576877 25.523579 0.057498 -2.909180 6.598392 -3.530754 -9.758801 -31.681147 -18.941202 3.573410 41.865894 -2.974238 4.552810 -15.475780 3.831270 10.370897 
-3.525602 48.402390 3.040803 7.541597 5.966686 10.340582 8.255935 -1.815896 -1.358287 7.048757 -4.726164 -3.762979 18.305050 -12.889679 6.821883 -9.454492 -6.258958 12.359835 -9.380895 -18.950565 6.319168 -51.442646 6.376620 -14.101011 -66.964531 10.426429 10.301394 39.614235 -23.958307 -3.528995 6.043368 4.158134 5.536235 56.606289 -15.924576 -41.908398 54.233521 -10.573206 12.157418 -51.806763 15.804502 -66.663849 -9.996551 19.771273 -8.610656 35.967350 -0.005977 -1.983266 10.951146 -2.471912 -7.736319 -23.622690 -15.937227 0.911716 37.218952 -1.899865 3.288403 -14.300366 4.329113 8.580919 
-5.413832 48.662590 3.545845 7.911261 1.750145 19.404211 8.255935 -1.815896 -1.358287 5.462638 -4.905303 -4.715095 19.220854 -7.185191 3.335821 -6.498921 -1.156318 9.347528 -10.224213 -17.481045 4.766683 -50.245728 11.161506 -5.564945 -67.227707 11.187663 10.736479 35.519394 -20.949764 -3.537089 5.239067 3.695946 3.905909 52.605816 -22.733791 -51.954571 66.118591 -9.294632 13.262758 -46.725662 16.304796 -55.362312 -22.525557 21.326149 -14.759815 52.298496 0.112872 -1.944760 11.164870 -0.716340 -6.386972 -19.928801 -11.883141 -0.653089 34.703842 -0.898349 1.754196 -14.670727 2.352777 6.929873 
-6.948626 48.623844 4.021422 7.362916 -1.649396 27.268085 8.255935 -1.815896 -1.358287 4.577819 -4.915584 -4.636423 19.920204 -1.972623 0.332171 -4.560831 3.537310 5.674927 -10.379253 -15.700824 3.731730 -48.094395 15.842021 4.152322 -68.991920 12.073341 11.459414 32.959927 -15.698335 -6.360541 5.363268 3.618869 3.028426 45.635704 -28.493423 -57.357361 76.033188 -8.045103 13.740947 -39.506126 15.180326 -46.543045 -33.454559 20.155754 -20.327353 67.794426 0.579447 -2.030337 10.042434 0.961398 -5.207754 -17.245514 -8.115159 -3.713931 32.793892 -0.576000 1.099782 -16.405085 -1.183849 5.100919 
-8.170265 48.628609 4.470921 6.126676 -3.806167 33.295452 8.255935 -1.815896 -1.358287 4.405713 -5.448217 -3.610873 20.290808 2.634830 -2.170165 -3.595381 8.374528 1.865840 -7.705139 -15.894528 4.804193 -48.792931 16.224468 2.891939 -71.659256 11.423079 12.357660 32.657257 -10.295835 -8.611693 6.456083 3.329016 2.807716 38.162140 -33.039734 -58.008194 83.865173 -7.052314 14.085590 -31.627050 14.633428 -38.383530 -40.671162 16.493914 -23.952097 80.279068 0.167270 -1.794407 8.500622 1.236759 -3.686710 -14.837687 -5.241291 -7.570402 29.838337 -0.204954 0.396439 -17.387552 -3.587656 3.373602 
-9.189360 48.836731 4.881600 5.308663 -5.481656 38.715221 8.255935 -1.815896 -1.358287 4.056799 -6.148463 -2.043618 20.076578 6.856196 -4.258843 -3.630063 13.222951 -2.205373 -3.918781 -17.772264 6.642530 -51.418777 14.267426 -4.528543 -74.243904 10.207520 12.765791 31.264990 -5.990863 -5.377080 8.047422 2.740514 2.854396 31.261530 -35.891388 -53.640877 89.383583 -6.277320 14.167867 -23.420538 14.496533 -30.334892 -45.223228 11.787189 -25.696487 87.330338 -0.361441 -1.726558 7.166961 -0.017638 -2.209089 -12.945625 -2.967075 -12.710525 26.524738 -0.224580 -0.104804 -16.244602 -4.215749 2.455153 
-10.101552 49.143089 5.249010 5.013858 -7.742881 44.434998 8.255935 -1.815896 -1.358287 3.528992 -6.679063 -0.787306 18.949434 10.704141 -6.936656 -4.349487 17.601091 -6.413619 -0.905067 -20.134647 8.029185 -54.080700 11.947756 -11.645783 -75.996109 9.551792 12.985070 29.174183 -3.406806 0.030862 9.340925 2.064172 2.564068 25.198242 -36.801666 -45.896103 93.204933 -5.756740 14.146259 -15.983782 13.392339 -21.954123 -48.852699 5.968565 -27.486002 89.986061 -0.361408 -1.599241 5.964817 -3.780028 -2.144974 -12.830976 -1.074050 -17.698807 23.160933 -0.048745 0.005444 -13.721807 -5.528752 1.449400 
-10.893317 49.308922 5.592269 4.654432 -10.396538 50.359875 8.255935 -1.815896 -1.358287 2.643168 -6.689319 0.363419 16.313456 14.087012 -9.798233 -6.436604 20.822060 -11.062403 1.004900 -22.072702 8.471126 -56.731651 9.072635 -18.485125 -77.618156 9.324070 13.483762 27.571192 -2.246070 1.029645 10.508434 1.989743 1.824778 19.446871 -36.505718 -36.561790 95.550888 -5.395226 14.206318 -10.612556 11.730105 -13.309610 -51.346172 0.254524 -29.302509 88.368996 0.126925 -1.983841 4.721896 -7.038929 -1.975071 -13.919798 1.095634 -20.987484 21.444115 0.390685 -0.863155 -12.145864 -7.532187 0.886817 
-11.457296 49.116669 5.930318 3.581063 -12.505630 55.284714 8.255935 -1.815896 -1.358287 2.289004 -5.983277 1.835561 13.458410 16.341753 -12.043888 -9.784887 22.152468 -15.852405 3.164562 -23.348114 9.167651 -58.789883 5.583199 -25.376160 -79.777679 9.435908 13.987413 24.884115 -2.142318 -0.789350 12.137968 2.881365 1.452608 13.283675 -35.146290 -28.035091 96.447624 -5.272869 14.224175 -7.215193 10.218463 -4.109351 -50.792892 -4.056206 -32.143040 83.277802 -0.234508 -1.960392 2.990448 -8.906316 -2.189013 -15.792439 2.794811 -21.912663 22.155941 0.521177 -1.374299 -13.359608 -10.778190 0.301266 
-11.698339 48.546711 6.271486 1.668967 -13.020594 57.678265 8.255935 -1.815896 -1.358287 2.459290 -4.577724 4.173362 10.656532 17.347040 -13.544776 -13.768064 21.485697 -20.195318 5.124087 -23.999950 9.584638 -60.229324 1.290412 -32.163559 -83.454628 10.037713 14.788746 21.256021 -3.177717 -2.719607 14.208922 4.252160 1.518140 6.963678 -33.166000 -21.555468 96.986183 -5.195343 14.233788 -4.843849 8.756097 3.924360 -45.799187 -4.862470 -34.407631 75.735619 -0.566497 -1.755555 -0.289946 -6.917578 -1.893445 -16.047594 4.385320 -19.630156 24.818251 1.434822 -2.444038 -17.104313 -13.501442 -0.988003 
-11.616730 47.857731 6.601817 -0.538572 -11.764249 57.360611 8.255935 -1.815896 -1.358287 2.979268 -2.997136 6.678628 9.041848 17.363737 -13.855714 -16.751770 19.524426 -23.315706 7.351964 -23.364975 9.425045 -59.865616 -3.365864 -39.461781 -88.816444 11.334782 15.975431 18.081284 -5.837522 -3.951743 16.622396 6.232251 1.673074 0.078468 -30.300615 -15.839868 97.862587 -5.086542 14.083992 -2.730490 7.422628 8.381862 -37.982334 -2.817261 -35.091591 66.936386 -0.576342 -1.700285 -4.618834 -2.694865 -1.901132 -14.716264 5.761243 -17.629690 27.798187 2.243400 -3.150055 -21.333664 -14.671272 -1.673051 
-11.291001 47.466572 6.861483 -2.418632 -9.525432 54.876385 8.255935 -1.815896 -1.358287 3.339191 -1.409405 8.694041 9.436110 16.264923 -13.160624 -16.877642 17.070873 -24.246469 8.594167 -21.894545 8.432126 -57.337452 -8.544083 -47.249664 -95.269478 13.506229 17.773464 18.011272 -8.935536 -3.458382 18.547995 7.806034 1.613734 -6.946720 -25.957165 -9.236521 99.114738 -4.896017 14.282331 -0.938039 5.862046 6.979189 -29.740221 0.608958 -32.219173 59.195084 -0.751973 -1.682124 -6.784812 1.625243 -1.931632 -11.845013 6.610535 -14.737190 29.383102 2.673485 -3.803666 -22.906166 -14.040351 -1.710876 
